# xmcd CD database file
#
# Track frame offsets:
#	150
#	20396
#	38061
#	64344
#	90361
#	118268
#	142535
#	164576
#	187075
#	212133
#	236895
#
# Disc length: 3510 seconds
#
# Revision: 1
# Processed by: cddbd v1.5.2PL0 Copyright (c) Steve Scherf et al.
# Submitted via: CDex 1.51
#
DISCID=980db40b
DTITLE=Baum, Ulli und Schnelle, Rainer Trio - Joy and Spirit
DYEAR=2005
DGENRE=Jazz
TTITLE0=East of the sun
TTITLE1=Find a love
TTITLE2=Nature boy
TTITLE3=Joy
TTITLE4=Naima
TTITLE5=Shiny stockings
TTITLE6=Step by step
TTITLE7=It's the talk of the town
TTITLE8=Willow weep for me
TTITLE9=A little while
TTITLE10=Smoke gets in your eyes
EXTD=YEAR: 2005
EXTT0=
EXTT1=
EXTT2=
EXTT3=
EXTT4=
EXTT5=
EXTT6=
EXTT7=
EXTT8=
EXTT9=
EXTT10=
PLAYORDER=
